<svg xmlns="http://www.w3.org/2000/svg" version="1.1" xmlns:xlink="http://www.w3.org/1999/xlink" xmlns:svgjs="http://svgjs.dev/svgjs" width="1500" height="1500" viewBox="0 0 1500 1500"><rect width="1500" height="1500" fill="#ffffff"></rect><g transform="matrix(0.6666666666666666,0,0,0.6666666666666666,249.39393939393938,659.7071484083991)"><svg viewBox="0 0 396 71" data-background-color="#ffffff" preserveAspectRatio="xMidYMid meet" height="268" width="1500" xmlns="http://www.w3.org/2000/svg" xmlns:xlink="http://www.w3.org/1999/xlink"><g id="tight-bounds" transform="matrix(1,0,0,1,0.2400000000000091,0.38130109890110475)"><svg viewBox="0 0 395.52 70.2373978021978" height="70.2373978021978" width="395.52"><g><svg viewBox="0 0 395.52 70.2373978021978" height="70.2373978021978" width="395.52"><g><svg viewBox="0 0 395.52 70.2373978021978" height="70.2373978021978" width="395.52"><g id="textblocktransform"><svg viewBox="0 0 395.52 70.2373978021978" height="70.2373978021978" width="395.52" id="textblock"><g><svg viewBox="0 0 395.52 70.2373978021978" height="70.2373978021978" width="395.52"><g transform="matrix(1,0,0,1,0,0)"><svg width="395.52" viewBox="3 -39.65 227.48 40.4" height="70.2373978021978" data-palette-color="#000000"><path d="M10.9-34.55Q17.15-34.55 20.43-31.78 23.7-29 23.7-23.6L23.7-23.6Q23.7-17.85 20.48-15 17.25-12.15 11.35-12.15L11.35-12.15 9.35-12.15 9.35 0 3 0 3-34.55 10.9-34.55ZM11-16.9Q14.25-16.9 15.7-18.4 17.15-19.9 17.15-23.55L17.15-23.55Q17.15-26.85 15.7-28.35 14.25-29.85 11.05-29.85L11.05-29.85 9.35-29.85 9.35-16.9 11-16.9ZM39.65-27.15Q42.5-27.15 44.15-25.1 45.8-23.05 45.8-19.6L45.8-19.6 45.8 0 39.65 0 39.65-18.9Q39.65-20.8 39.12-21.63 38.6-22.45 37.6-22.45L37.6-22.45Q35.5-22.45 33.45-18.5L33.45-18.5 33.45 0 27.3 0 27.3-37 33.45-37.65 33.45-23.3Q34.7-25.25 36.17-26.2 37.65-27.15 39.65-27.15L39.65-27.15ZM60.75-27.15Q65.75-27.15 68.52-23.65 71.3-20.15 71.3-13.25L71.3-13.25Q71.3-6.65 68.5-2.95 65.7 0.75 60.75 0.75L60.75 0.75Q55.8 0.75 53-2.88 50.2-6.5 50.2-13.25L50.2-13.25Q50.2-19.95 53-23.55 55.8-27.15 60.75-27.15L60.75-27.15ZM60.75-22.5Q58.6-22.5 57.6-20.38 56.6-18.25 56.6-13.25L56.6-13.25Q56.6-8.2 57.6-6.08 58.6-3.95 60.75-3.95L60.75-3.95Q62.9-3.95 63.9-6.08 64.9-8.2 64.9-13.25L64.9-13.25Q64.9-18.3 63.9-20.4 62.9-22.5 60.75-22.5L60.75-22.5ZM86.99-5L89.14-1.2Q86.69 0.75 83.39 0.75L83.39 0.75Q79.94 0.75 78.14-1.23 76.34-3.2 76.34-6.6L76.34-6.6 76.34-22 73.24-22 73.24-26.45 76.34-26.45 76.34-32.3 82.49-33.05 82.49-26.45 87.49-26.45 86.89-22 82.49-22 82.49-6.6Q82.49-4.2 84.54-4.2L84.54-4.2Q85.19-4.2 85.69-4.38 86.19-4.55 86.99-5L86.99-5ZM101.09-27.15Q106.09-27.15 108.87-23.65 111.64-20.15 111.64-13.25L111.64-13.25Q111.64-6.65 108.84-2.95 106.04 0.75 101.09 0.75L101.09 0.75Q96.14 0.75 93.34-2.88 90.54-6.5 90.54-13.25L90.54-13.25Q90.54-19.95 93.34-23.55 96.14-27.15 101.09-27.15L101.09-27.15ZM101.09-22.5Q98.94-22.5 97.94-20.38 96.94-18.25 96.94-13.25L96.94-13.25Q96.94-8.2 97.94-6.08 98.94-3.95 101.09-3.95L101.09-3.95Q103.24-3.95 104.24-6.08 105.24-8.2 105.24-13.25L105.24-13.25Q105.24-18.3 104.24-20.4 103.24-22.5 101.09-22.5L101.09-22.5ZM138.44-35.25Q141.28-35.25 143.53-34.23 145.78-33.2 147.78-31.25L147.78-31.25 144.59-27.95Q143.03-29.3 141.69-29.88 140.34-30.45 138.63-30.45L138.63-30.45Q135.34-30.45 133.46-27.5 131.59-24.55 131.59-17.3L131.59-17.3Q131.59-12.2 132.26-9.33 132.94-6.45 134.26-5.3 135.59-4.15 137.74-4.15L137.74-4.15Q139.99-4.15 141.84-5.4L141.84-5.4 141.84-14.75 137.94-14.75 137.28-19.5 147.88-19.5 147.88-2.6Q145.74-1.05 143.11-0.18 140.49 0.7 137.78 0.7L137.78 0.7Q131.34 0.7 128.13-3.68 124.94-8.05 124.94-17.3L124.94-17.3Q124.94-23.3 126.71-27.33 128.49-31.35 131.53-33.3 134.59-35.25 138.44-35.25L138.44-35.25ZM171.78-13.85Q171.78-13.4 171.63-11.3L171.63-11.3 157.98-11.3Q158.18-7.2 159.41-5.58 160.63-3.95 162.88-3.95L162.88-3.95Q164.43-3.95 165.68-4.48 166.93-5 168.38-6.15L168.38-6.15 170.93-2.65Q167.43 0.75 162.53 0.75L162.53 0.75Q157.33 0.75 154.56-2.85 151.78-6.45 151.78-13L151.78-13Q151.78-19.55 154.43-23.35 157.08-27.15 161.93-27.15L161.93-27.15Q166.58-27.15 169.18-23.78 171.78-20.4 171.78-13.85L171.78-13.85ZM165.78-15.3L165.78-15.65Q165.78-19.4 164.88-21.13 163.98-22.85 161.98-22.85L161.98-22.85Q160.13-22.85 159.16-21.18 158.18-19.5 157.98-15.3L157.98-15.3 165.78-15.3ZM188.43-27.15Q191.28-27.15 192.93-25.1 194.58-23.05 194.58-19.6L194.58-19.6 194.58 0 188.43 0 188.43-18.9Q188.43-20.8 187.91-21.63 187.38-22.45 186.38-22.45L186.38-22.45Q184.28-22.45 182.23-18.5L182.23-18.5 182.23 0 176.08 0 176.08-26.45 181.43-26.45 181.88-23Q183.23-25.1 184.76-26.13 186.28-27.15 188.43-27.15L188.43-27.15ZM200.13-26.45L206.28-26.45 206.28 0 200.13 0 200.13-26.45ZM203.18-39.65Q204.83-39.65 205.85-38.6 206.88-37.55 206.88-35.9L206.88-35.9Q206.88-34.3 205.85-33.25 204.83-32.2 203.18-32.2L203.18-32.2Q201.53-32.2 200.5-33.25 199.48-34.3 199.48-35.9L199.48-35.9Q199.48-37.55 200.5-38.6 201.53-39.65 203.18-39.65L203.18-39.65ZM229.43-26.45L223.33-14.15 230.48 0 223.98 0 219.58-10.65 215.28 0 208.93 0 216.08-13.95 209.63-26.45 216.03-26.45 219.68-17.25 223.23-26.45 229.43-26.45Z" opacity="1" transform="matrix(1,0,0,1,0,0)" fill="#000000" class="wordmark-text-0" data-fill-palette-color="primary" id="text-0"></path></svg></g></svg></g></svg></g></svg></g><g></g></svg></g><defs></defs></svg><rect width="395.52" height="70.2373978021978" fill="none" stroke="none" visibility="hidden"></rect></g></svg></g></svg>